<svg width="48" height="50" viewBox="0 0 48 50" fill="none" xmlns="http://www.w3.org/2000/svg">
<g filter="url(#filter0_d_75273_677)">
<path fill-rule="evenodd" clip-rule="evenodd" d="M21.1136 3.0215H20.977C20.7671 3.00878 20.5571 3.0037 20.3471 2.99861H20.3471H20.3269H19.8918C19.4946 2.99861 19.0898 3.00878 18.6876 3.02912C18.6573 3.02692 18.6269 3.02692 18.5966 3.02912C14.9522 3.23561 11.3817 4.14649 8.08049 5.7119L7.6479 5.92042V28.0616L8.65979 27.7183C9.54773 27.4131 10.4938 27.1385 11.4728 26.8842C14.1193 26.2048 16.8367 25.8437 19.568 25.8085V28.7176C19.2062 28.7202 18.8546 28.7303 18.503 28.7481H18.4195C16.3175 28.8634 14.2317 29.1837 12.1913 29.7043C9.60716 30.3512 7.11433 31.3226 4.77161 32.5956V4.19886C7.20469 2.77973 9.82533 1.71385 12.5556 1.03294C14.9527 0.414027 17.4169 0.0962821 19.8918 0.0869751H20.3193C20.8303 0.0996897 21.3287 0.122576 21.7967 0.158177C23.0297 0.244751 24.2528 0.439603 25.4521 0.740503V3.60382C24.2874 3.33248 23.1032 3.15393 21.9105 3.06981C21.8863 3.06777 21.8621 3.0657 21.8379 3.06363C21.5911 3.04258 21.344 3.0215 21.1136 3.0215ZM26.1528 5.94836C26.7877 5.99667 27.4455 6.01956 28.1108 6.01956C30.7125 6.01005 33.3031 5.67781 35.8239 5.03037C38.4068 4.38094 40.8986 3.40875 43.2411 2.13654V30.0272C40.8067 31.4455 38.1853 32.5113 35.4546 33.1931C33.0571 33.8097 30.5931 34.1265 28.1184 34.1365C26.2433 34.1517 24.3737 33.9313 22.553 33.4805V5.40926C22.983 5.50844 23.4257 5.59998 23.876 5.67627C24.6147 5.80087 25.3939 5.89242 26.1528 5.94836ZM40.3471 6.16451L39.3352 6.50526C38.4042 6.81804 37.4657 7.09775 36.5221 7.34696C33.7749 8.05293 30.9514 8.41507 28.1158 8.42515C27.4556 8.42515 26.8485 8.40735 26.2616 8.36921L25.4546 8.31581V28.4048V31.0927L26.1477 31.1537C26.7903 31.2096 27.4531 31.2376 28.1209 31.2376C30.3544 31.2281 32.5781 30.9403 34.7412 30.3806C36.5223 29.9339 38.2552 29.3112 39.9145 28.5218L40.3471 28.3133V6.16451Z" fill="#AFB1B8"/>
<path d="M6.73713 42.2994C6.59166 42.1485 6.41629 42.0301 6.22236 41.9516C6.02844 41.8732 5.82029 41.8366 5.61141 41.8442C5.38879 41.8413 5.16781 41.8828 4.96127 41.9663C4.7719 42.0417 4.59977 42.1551 4.45532 42.2994C4.31245 42.4442 4.20129 42.6175 4.12899 42.808C4.04968 43.0077 4.01014 43.2211 4.01262 43.4361V47.2301C4.00357 47.4975 4.05459 47.7634 4.16187 48.0083C4.25143 48.2027 4.38072 48.376 4.54133 48.5168C4.69295 48.6445 4.87098 48.7366 5.06246 48.7864C5.24694 48.8382 5.43755 48.8648 5.62911 48.8652C5.84041 48.8673 6.04953 48.8222 6.24131 48.733C6.43095 48.65 6.60277 48.5308 6.74725 48.3821C6.88814 48.2347 7.00052 48.0622 7.07865 47.8735C7.15973 47.6822 7.20105 47.4762 7.20007 47.2683V46.8436H6.20842V47.1818C6.21137 47.2973 6.1916 47.4122 6.15024 47.52C6.11794 47.6008 6.06877 47.6736 6.00604 47.7336C5.94461 47.7833 5.87416 47.8204 5.79861 47.843C5.73164 47.8653 5.6617 47.8773 5.59117 47.8786C5.50263 47.8889 5.41296 47.8755 5.33122 47.8398C5.24948 47.804 5.17858 47.7473 5.1257 47.6751C5.03222 47.5227 4.9864 47.3455 4.99415 47.1666V43.6294C4.988 43.4332 5.02969 43.2385 5.11558 43.0623C5.16706 42.9822 5.2399 42.9183 5.32578 42.8778C5.41166 42.8374 5.50713 42.822 5.60129 42.8334C5.68676 42.8304 5.7717 42.8482 5.8488 42.8854C5.92591 42.9226 5.99289 42.9781 6.04399 43.047C6.15496 43.1927 6.21298 43.3722 6.20842 43.5556V43.8837H7.18995V43.4971C7.19195 43.2701 7.15073 43.0449 7.06853 42.8334C6.99527 42.6347 6.88251 42.453 6.73713 42.2994Z" fill="#AFB1B8"/>
<path d="M12.6289 42.2561C12.3127 41.9891 11.9136 41.8416 11.5007 41.8391C11.2987 41.84 11.0984 41.8761 10.9087 41.9459C10.7161 42.0149 10.5384 42.1202 10.3851 42.2561C10.2208 42.4038 10.0897 42.585 10.0005 42.7876C9.90063 43.0194 9.85146 43.27 9.85634 43.5225V47.1614C9.8495 47.4174 9.89873 47.6718 10.0005 47.9065C10.0903 48.1022 10.2215 48.2758 10.3851 48.4151C10.5367 48.5558 10.7147 48.6648 10.9087 48.7355C11.0984 48.8053 11.2987 48.8414 11.5007 48.8423C11.7027 48.8419 11.9031 48.8058 12.0926 48.7355C12.29 48.6638 12.4719 48.5551 12.6289 48.4151C12.7871 48.2732 12.9145 48.1 13.0033 47.9065C13.1051 47.6718 13.1544 47.4174 13.1475 47.1614V43.5225C13.1524 43.27 13.1032 43.0194 13.0033 42.7876C12.9151 42.5871 12.7878 42.4064 12.6289 42.2561ZM12.166 47.1614C12.1743 47.2584 12.1609 47.356 12.1268 47.4471C12.0926 47.5382 12.0386 47.6205 11.9687 47.6878C11.8377 47.7977 11.6725 47.8578 11.5019 47.8578C11.3313 47.8578 11.1662 47.7977 11.0352 47.6878C10.9652 47.6205 10.9112 47.5382 10.8771 47.4471C10.8429 47.356 10.8295 47.2584 10.8379 47.1614V43.5225C10.8295 43.4255 10.8429 43.3279 10.8771 43.2368C10.9112 43.1457 10.9652 43.0635 11.0352 42.9961C11.1662 42.8863 11.3313 42.8261 11.5019 42.8261C11.6725 42.8261 11.8377 42.8863 11.9687 42.9961C12.0386 43.0635 12.0926 43.1457 12.1268 43.2368C12.1609 43.3279 12.1743 43.4255 12.166 43.5225V47.1614Z" fill="#AFB1B8"/>
<path d="M20.3673 48.7864V41.8977H19.4136L18.1614 45.5442H18.1437L16.8813 41.8977H15.9377V48.7864H16.9218V44.5957H16.9395L17.9033 47.5582H18.3941L19.3655 44.5957H19.3832V48.7864H20.3673Z" fill="#AFB1B8"/>
<path d="M25.9581 42.3807C25.8065 42.2107 25.6153 42.0814 25.4015 42.0043C25.1712 41.9294 24.9302 41.8933 24.6881 41.8975H23.226V48.7863H24.2075V46.0959H24.7134C25.0197 46.1098 25.3244 46.0451 25.5988 45.9077C25.822 45.7838 26.0081 45.602 26.1377 45.3813C26.2512 45.1981 26.3277 44.9942 26.3628 44.7812C26.4014 44.522 26.4192 44.2601 26.4159 43.998C26.4255 43.6672 26.3932 43.3365 26.3198 43.0139C26.2543 42.7755 26.1299 42.5577 25.9581 42.3807ZM25.4521 44.4812C25.4479 44.6059 25.4168 44.7282 25.361 44.8397C25.3049 44.9456 25.2162 45.0304 25.1081 45.0813C24.9627 45.1463 24.8041 45.1759 24.6451 45.1677H24.1974V42.8257H24.7033C24.8557 42.8182 25.0075 42.8479 25.146 42.9122C25.2475 42.9704 25.3281 43.0594 25.3762 43.1665C25.4299 43.2875 25.4591 43.418 25.4622 43.5504C25.4622 43.6954 25.4622 43.848 25.4622 44.0082C25.4622 44.1684 25.4723 44.3337 25.4622 44.4812H25.4521Z" fill="#AFB1B8"/>
<path d="M30.6077 41.8977H29.8032L28.2854 48.7864H29.2669L29.5553 47.3065H30.8935L31.1819 48.7864H32.1635L30.6077 41.8977ZM29.702 46.3681L30.1852 43.871H30.2029L30.6836 46.3681H29.702Z" fill="#AFB1B8"/>
<path d="M36.9497 46.0477H36.932L35.4496 41.8977H34.506V48.7864H35.4875V44.644H35.5078L37.0079 48.7864H37.9312V41.8977H36.9497V46.0477Z" fill="#AFB1B8"/>
<path d="M42.9476 41.8977L42.1583 44.6364H42.1381L41.3488 41.8977H40.3091L41.6574 45.8748V48.7864H42.639V45.8748L43.9873 41.8977H42.9476Z" fill="#AFB1B8"/>
</g>
<defs>
<filter id="filter0_d_75273_677" x="0" y="0.0869751" width="48" height="59.9993" filterUnits="userSpaceOnUse" color-interpolation-filters="sRGB">
<feFlood flood-opacity="0" result="BackgroundImageFix"/>
<feColorMatrix in="SourceAlpha" type="matrix" values="0 0 0 0 0 0 0 0 0 0 0 0 0 0 0 0 0 0 127 0" result="hardAlpha"/>
<feOffset dy="4"/>
<feGaussianBlur stdDeviation="2"/>
<feComposite in2="hardAlpha" operator="out"/>
<feColorMatrix type="matrix" values="0 0 0 0 0 0 0 0 0 0 0 0 0 0 0 0 0 0 0.25 0"/>
<feBlend mode="normal" in2="BackgroundImageFix" result="effect1_dropShadow_75273_677"/>
<feBlend mode="normal" in="SourceGraphic" in2="effect1_dropShadow_75273_677" result="shape"/>
</filter>
</defs>
</svg>
