<svg width="45" height="42" viewBox="0 0 45 42" fill="none" xmlns="http://www.w3.org/2000/svg">
<path d="M7.40628 41.1883C7.42219 41.1887 7.43786 41.1918 7.45238 41.1975C7.46689 41.2032 7.47995 41.2114 7.4908 41.2215L7.70892 41.43C7.53961 41.5987 7.33035 41.7337 7.09546 41.8257C6.82039 41.926 6.52394 41.9745 6.22572 41.9678C5.94548 41.9728 5.66705 41.9277 5.40777 41.8351C5.17389 41.7502 4.96376 41.6225 4.79159 41.4608C4.61588 41.2931 4.48054 41.0965 4.39353 40.8827C4.29824 40.6444 4.25119 40.3935 4.25448 40.1411C4.25061 39.8872 4.30147 39.6349 4.40443 39.3972C4.49968 39.182 4.64335 38.9855 4.82704 38.8191C5.01321 38.656 5.23592 38.5278 5.48139 38.4424C5.74992 38.3519 6.03588 38.3069 6.32387 38.3097C6.59138 38.3041 6.85747 38.3452 7.10637 38.4306C7.32231 38.512 7.52058 38.625 7.69256 38.7646L7.50988 38.9873C7.49726 39.003 7.48158 39.0166 7.46353 39.0276C7.44198 39.0404 7.41593 39.0463 7.38992 39.0442C7.36162 39.0425 7.33434 39.0343 7.31085 39.0205L7.2127 38.9613L7.07637 38.8854C7.01753 38.8573 6.95649 38.8328 6.8937 38.812C6.81283 38.7868 6.72989 38.767 6.64559 38.7528C6.5386 38.7356 6.42992 38.7277 6.32114 38.7291C6.11376 38.7268 5.90796 38.7606 5.71587 38.8286C5.53672 38.8915 5.37501 38.9868 5.24146 39.1082C5.10551 39.2372 5.00074 39.3887 4.93337 39.5536C4.85658 39.7422 4.81874 39.9411 4.82158 40.1411C4.81831 40.3443 4.85615 40.5464 4.93337 40.7382C4.9999 40.9017 5.10272 41.0522 5.23601 41.1812C5.36088 41.3015 5.51567 41.3955 5.6886 41.4561C5.86657 41.5202 6.0576 41.5524 6.25025 41.5508C6.36154 41.5523 6.47278 41.546 6.58288 41.5319C6.76267 41.5128 6.93513 41.4585 7.08728 41.3731C7.16359 41.3294 7.23563 41.2803 7.30267 41.2263C7.3307 41.203 7.36756 41.1895 7.40628 41.1883Z" fill="#AFB1B8"/>
<path d="M13.7044 40.1407C13.7078 40.3921 13.6579 40.6418 13.5572 40.8775C13.4684 41.0913 13.3284 41.2862 13.1465 41.4496C12.9646 41.6129 12.745 41.7409 12.5021 41.8251C11.9683 42.002 11.3782 42.002 10.8444 41.8251C10.603 41.7396 10.3848 41.6113 10.2037 41.4484C10.0219 41.2821 9.88095 41.0855 9.78927 40.8704C9.59287 40.3932 9.59287 39.8716 9.78927 39.3945C9.88228 39.1793 10.0231 38.982 10.2037 38.8141C10.3864 38.6563 10.6045 38.5329 10.8444 38.4516C11.3775 38.2715 11.969 38.2715 12.5021 38.4516C12.7443 38.5371 12.9634 38.6653 13.1455 38.8283C13.325 38.9929 13.465 39.187 13.5572 39.3992C13.6582 39.6364 13.7081 39.8878 13.7044 40.1407ZM13.1319 40.1407C13.1362 39.9396 13.1011 39.7394 13.0283 39.5485C12.9672 39.3849 12.8679 39.2341 12.7366 39.1054C12.6087 38.9837 12.4513 38.8882 12.2758 38.8259C11.8879 38.6964 11.4586 38.6964 11.0707 38.8259C10.8952 38.8882 10.7378 38.9837 10.6099 39.1054C10.4768 39.2333 10.3764 39.3843 10.3155 39.5485C10.1768 39.9341 10.1768 40.3473 10.3155 40.733C10.377 40.8969 10.4773 41.0478 10.6099 41.176C10.7379 41.297 10.8953 41.3917 11.0707 41.4532C11.4593 41.5794 11.8872 41.5794 12.2758 41.4532C12.4512 41.3917 12.6086 41.297 12.7366 41.176C12.8673 41.047 12.9665 40.8963 13.0283 40.733C13.1015 40.5422 13.1365 40.3418 13.1319 40.1407Z" fill="#AFB1B8"/>
<path d="M18.0013 40.7616L18.0586 40.8943C18.0804 40.8469 18.0995 40.8043 18.1213 40.7616C18.1421 40.7171 18.1657 40.6736 18.1922 40.6313L19.5854 38.4308C19.6127 38.3929 19.6372 38.3692 19.6645 38.3621C19.7015 38.3523 19.7403 38.3482 19.779 38.3502H20.1907V41.9294H19.7026V39.2977C19.7026 39.2646 19.7026 39.2267 19.7026 39.1864C19.7 39.1454 19.7 39.1042 19.7026 39.0632L18.3012 41.2946C18.2834 41.328 18.255 41.3563 18.2192 41.376C18.1834 41.3958 18.1418 41.4061 18.0995 41.4059H18.0204C17.9779 41.4064 17.9362 41.3962 17.9004 41.3764C17.8646 41.3566 17.8362 41.3282 17.8186 41.2946L16.3763 39.049C16.3763 39.0916 16.3763 39.1343 16.3763 39.1769C16.3763 39.2196 16.3763 39.2575 16.3763 39.2906V41.9223H15.9047V38.3502H16.3164C16.355 38.3482 16.3938 38.3523 16.4309 38.3621C16.4647 38.3766 16.4916 38.4009 16.5072 38.4308L17.9304 40.6337C17.9584 40.6744 17.9821 40.7172 18.0013 40.7616Z" fill="#AFB1B8"/>
<path d="M23.2443 40.5838V41.9245H22.699V38.3501H23.915C24.1446 38.3463 24.3735 38.3726 24.5939 38.4283C24.7704 38.4717 24.9341 38.5477 25.0738 38.6509C25.1949 38.7477 25.2883 38.8678 25.3464 39.0015C25.4108 39.1473 25.4423 39.3025 25.4391 39.4586C25.4415 39.6154 25.4072 39.7709 25.3383 39.9158C25.2727 40.0529 25.172 40.1753 25.0438 40.2735C24.9039 40.3811 24.7395 40.4618 24.5612 40.5104C24.3489 40.5693 24.1269 40.5973 23.9041 40.5933L23.2443 40.5838ZM23.2443 40.2001H23.9041C24.0475 40.2017 24.1901 40.1833 24.3267 40.1456C24.4394 40.1126 24.5433 40.0603 24.6321 39.9916C24.714 39.9261 24.7775 39.845 24.8175 39.7547C24.8621 39.6592 24.8844 39.557 24.8829 39.4539C24.8893 39.3545 24.8706 39.2552 24.8282 39.1627C24.7859 39.0703 24.7208 38.987 24.6376 38.9186C24.4293 38.7773 24.1676 38.7088 23.9041 38.7267H23.2443V40.2001Z" fill="#AFB1B8"/>
<path d="M30.5731 41.9293H30.1423C30.0991 41.9307 30.0566 41.919 30.0223 41.8961C29.9914 41.8738 29.9671 41.8454 29.9514 41.8132L29.5806 40.9485H27.7185L27.334 41.8132C27.3199 41.8448 27.2964 41.8726 27.2659 41.8938C27.2312 41.918 27.1877 41.9306 27.1432 41.9293H26.7124L28.3483 38.3497H28.9154L30.5731 41.9293ZM27.8739 40.6003H29.4116L28.7627 39.1433C28.7131 39.0338 28.6721 38.9214 28.64 38.8069L28.5773 38.9941C28.5582 39.051 28.5364 39.1031 28.5173 39.1457L27.8739 40.6003Z" fill="#AFB1B8"/>
<path d="M32.9288 38.3664C32.9614 38.3819 32.9894 38.4038 33.0106 38.4304L35.3962 41.1286C35.3962 41.086 35.3962 41.0433 35.3962 41.0031C35.3962 40.9628 35.3962 40.9225 35.3962 40.8846V38.3498H35.8843V41.9293H35.6116C35.5729 41.9304 35.5345 41.923 35.4998 41.908C35.4662 41.8909 35.4365 41.8684 35.4126 41.8417L33.0297 39.1458C33.0323 39.1868 33.0323 39.2279 33.0297 39.269C33.0297 39.3092 33.0297 39.3448 33.0297 39.3779V41.9293H32.5416V38.3498H32.8306C32.8644 38.349 32.8979 38.3546 32.9288 38.3664Z" fill="#AFB1B8"/>
<path d="M39.9031 40.5057V41.9271H39.3578V40.5057L37.85 38.35H38.3381C38.3801 38.3478 38.4217 38.3587 38.4553 38.3808C38.485 38.4037 38.5099 38.431 38.5289 38.4613L39.4723 39.8519C39.5105 39.9111 39.5432 39.9656 39.5705 40.0177C39.5977 40.0698 39.6195 40.1196 39.6386 40.1693L39.7095 40.0153C39.736 39.959 39.7669 39.9044 39.8022 39.8519L40.7319 38.4518C40.7515 38.4239 40.7753 38.3984 40.8028 38.376C40.8352 38.3515 40.8772 38.3387 40.9201 38.3405H41.4136L39.9031 40.5057Z" fill="#AFB1B8"/>
<path d="M17.7314 32.3431C17.9686 32.3691 18.2086 32.3904 18.4512 32.4094C22.1301 30.9795 25.2422 28.6392 27.3987 25.6811C29.5552 22.7229 30.6603 19.2782 30.5759 15.7773L26.5216 12.2548C27.346 15.9821 26.9604 19.8351 25.408 23.3828C23.8555 26.9306 21.1976 30.033 17.7314 32.3431Z" fill="#AFB1B8"/>
<path d="M16.2837 32.1792L16.3928 32.1981C20.0966 29.8963 22.9205 26.682 24.4993 22.9708C26.078 19.2596 26.3389 15.2223 25.2483 11.3808L19.4737 6.36365C21.8094 10.4877 22.7495 15.1031 22.1848 19.6731C21.6201 24.2431 19.5737 28.5799 16.2837 32.1792Z" fill="#AFB1B8"/>
<path d="M35.8679 19.9135C34.8868 23.76 32.5041 27.2292 29.0735 29.8058C28.0716 30.5624 26.9909 31.2365 25.8454 31.8193C28.6389 31.1059 31.2065 29.8447 33.3502 28.1329C35.494 26.421 37.1566 24.3043 38.21 21.9459L35.8679 19.9135Z" fill="#AFB1B8"/>
<path d="M34.9491 19.347L31.6146 16.4498C31.5509 19.7529 30.4701 22.9809 28.4846 25.7983C26.4991 28.6157 23.6814 30.9196 20.3243 32.4706H20.3406C21.0888 32.4704 21.8362 32.4316 22.5791 32.3546C25.7165 31.2419 28.488 29.4718 30.6465 27.2021C32.8049 24.9324 34.2831 22.2338 34.9491 19.347Z" fill="#AFB1B8"/>
<path d="M16.7663 4.24782L12.7883 0.786865C9.23222 1.98082 6.1738 4.07975 4.01337 6.80894C1.85294 9.53813 0.69115 12.7704 0.680054 16.0828H0.680054C0.693382 19.7429 2.11126 23.2946 4.70929 26.1757C7.30731 29.0569 10.9371 31.1029 15.0241 31.9899C18.6725 28.1279 20.8086 23.3557 21.1219 18.3667C21.4352 13.3777 19.9094 8.43186 16.7663 4.24782Z" fill="#AFB1B8"/>
<path d="M44.1401 18.8142C44.1257 14.4718 42.1339 10.3107 38.5997 7.24009C35.0656 4.16948 30.2764 2.4389 25.2784 2.4264C22.9688 2.42432 20.6789 2.79461 18.5249 3.51845L42.8805 24.6796C43.7144 22.809 44.1415 20.8202 44.1401 18.8142Z" fill="#AFB1B8"/>
</svg>
